Coordinates
version=1
nRows=7
nColumns=40
inDegrees=yes

Units are S.I. units (second, meters, Newtons, ...)
Angles are in degrees.

endheader
time	pelvis_tilt	pelvis_list	pelvis_rotation	pelvis_tx	pelvis_ty	pelvis_tz	hip_flexion_r	hip_adduction_r	hip_rotation_r	knee_angle_r	knee_angle_r_beta	ankle_angle_r	subtalar_angle_r	mtp_angle_r	hip_flexion_l	hip_adduction_l	hip_rotation_l	knee_angle_l	knee_angle_l_beta	ankle_angle_l	subtalar_angle_l	mtp_angle_l	lumbar_extension	lumbar_bending	lumbar_rotation	arm_flex_r	arm_add_r	arm_rot_r	elbow_flex_r	pro_sup_r	wrist_flex_r	wrist_dev_r	arm_flex_l	arm_add_l	arm_rot_l	elbow_flex_l	pro_sup_l	wrist_flex_l	wrist_dev_l
     43.38500000	     -6.84873517	     -4.26382811	     -5.62410267	      0.92810361	      0.92475053	      0.45853148	     29.65100535	      0.56900063	    -10.57611279	     18.19442677	     18.19442677	      3.76826307	      5.98193979	      4.84063227	      7.08503614	     -5.07662206	     -8.22108803	     16.90489354	     16.90489354	     17.40782381	    -10.63069526	     -2.56314995	    -10.47052160	      6.57625113	      1.36331690	    -14.34057682	     -9.96933543	     -4.56295908	     31.39219709	     45.43585660	      0.00000000	      0.00000000	     15.66481788	    -22.38458999	    -17.57933723	     85.97301328	     46.75733473	      0.00000000	      0.00000000
     43.39735714	     -6.89118381	     -4.19353767	     -5.75338244	      0.92940141	      0.92344632	      0.46011637	     29.18299178	      0.77522366	    -11.02064001	     16.73406034	     16.73406034	      3.73698622	      6.74577017	      5.50113960	      6.53498009	     -5.03322598	     -8.22709895	     16.83445112	     16.83445112	     17.79587788	    -10.75937777	     -2.56587649	    -10.34010699	      6.55443360	      1.39725421	    -14.08918604	     -9.87730733	     -4.54600485	     31.44794812	     45.44028184	      0.00000000	      0.00000000	     16.06072767	    -22.40475639	    -17.53765691	     86.40605901	     46.78270017	      0.00000000	      0.00000000
     43.40971429	     -6.88990416	     -4.15042403	     -5.84746069	      0.93096389	      0.92221121	      0.46171605	     28.74981908	      0.94658649	    -11.40711158	     15.89421317	     15.89421317	      3.70973635	      7.21538158	      5.93505444	      5.90473821	     -5.00945734	     -8.19270908	     16.73776476	     16.73776476	     18.22012039	    -10.87132310	     -2.48252032	    -10.23273552	      6.59469942	      1.41702424	    -13.70674349	     -9.86037922	     -4.53248256	     31.52683377	     45.44538932	      0.00000000	      0.00000000	     16.35820926	    -22.36217863	    -17.44177695	     86.80347125	     46.80419295	      0.00000000	      0.00000000
     43.42207143	     -7.00174108	     -4.06212572	     -5.92751224	      0.93264247	      0.92068268	      0.46333665	     28.66593518	      1.02038428	    -11.58825315	     15.85174012	     15.85174012	      3.67675683	      7.14528886	      5.96427415	      5.45897620	     -4.96629972	     -8.19559696	     16.75728854	     16.75728854	     18.60814054	    -10.98807759	     -2.58040981	     -9.91472076	      6.61401784	      1.43656079	    -13.42055157	     -9.86674170	     -4.53159768	     31.62288900	     45.44424239	      0.00000000	      0.00000000	     16.47114472	    -22.31371279	    -17.40014676	     86.87985731	     46.80532453	      0.00000000	      0.00000000
     43.43442857	     -6.85492661	     -4.16759708	     -5.93806902	      0.93461941	      0.91980134	      0.46507185	     28.11226572	      1.26133988	    -11.75885546	     15.82571833	     15.82571833	      3.53888260	      6.97739277	      5.77072460	      4.61627992	     -5.09410391	     -8.02417300	     16.61902945	     16.61902945	     19.01526834	    -11.02461331	     -2.25860531	     -9.96180824	      6.77697024	      1.41401870	    -12.60441574	     -9.94598714	     -4.51138334	     31.77080761	     45.44907824	      0.00000000	      0.00000000	     16.70759668	    -22.09087360	    -17.15433604	     87.18966947	     46.81321555	      0.00000000	      0.00000000
     43.44678571	     -6.88900032	     -4.19950277	     -5.94690914	      0.93663705	      0.91867738	      0.46673224	     27.86414873	      1.39676060	    -11.82194378	     16.21036755	     16.21036755	      3.44506628	      6.66720352	      5.51804176	      4.05722233	     -5.17745021	     -7.96151335	     16.62809907	     16.62809907	     19.38741987	    -11.10853926	     -2.16202589	     -9.76577764	      6.98182404	      1.39895186	    -11.90843254	    -10.01589715	     -4.50861378	     31.94331145	     45.44970185	      0.00000000	      0.00000000	     16.73328789	    -21.80271973	    -16.95184258	     87.24626168	     46.80792845	      0.00000000	      0.00000000
     43.45914286	     -6.79375691	     -4.26460824	     -5.90477805	      0.93875459	      0.91780366	      0.46844822	     27.55951511	      1.53060717	    -11.71656983	     16.91208945	     16.91208945	      3.43311319	      6.08650978	      5.01737122	      3.41150484	     -5.30490488	     -7.84969373	     16.74356589	     16.74356589	     19.72797926	    -11.17791659	     -1.96780008	     -9.71286639	      7.17617368	      1.37218910	    -11.10708589	    -10.14832513	     -4.51529946	     32.10394024	     45.45286987	      0.00000000	      0.00000000	     16.69198545	    -21.48468560	    -16.71236934	     87.22268000	     46.79984810	      0.00000000	      0.00000000
